<?xml version="1.0" encoding="iso-8859-1"?>
<!-- Uploaded to: SVG Repo, www.svgrepo.com, Generator: SVG Repo Mixer Tools -->
<svg height="800px" width="800px" version="1.1" id="Layer_1" xmlns="http://www.w3.org/2000/svg" xmlns:xlink="http://www.w3.org/1999/xlink" 
	 viewBox="0 0 512 512" xml:space="preserve">
<circle style="fill:#94D1EA;" cx="256" cy="256" r="245.801"/>
<path style="fill:#FFBA7A;" d="M286.598,306.428V112.191c0-16.898-13.699-30.598-30.598-30.598
	c-16.899,0-30.598,13.699-30.598,30.598v194.237c-16.823,10.309-28.048,28.86-28.048,50.034c0,32.389,26.257,58.645,58.645,58.645
	s58.645-26.257,58.645-58.645C314.645,335.287,303.42,316.736,286.598,306.428z"/>
<circle style="fill:#FF0022;" cx="256" cy="356.462" r="26.008"/>
<g>
	<path style="fill:#5E282D;" d="M437.019,74.981C388.667,26.628,324.381,0,256,0S123.333,26.628,74.981,74.981
		C26.628,123.333,0,187.619,0,256s26.628,132.667,74.981,181.019C123.333,485.372,187.619,512,256,512
		s132.667-26.628,181.019-74.981C485.372,388.667,512,324.381,512,256S485.372,123.333,437.019,74.981z M383.056,325.529
		c-5.527-1.032-10.865,2.608-11.905,8.145c-8.491,45.293-24.708,85.641-45.659,113.608c-14.403,19.227-38.131,42.144-69.377,42.144
		c-31.419,0-61.451-23.447-84.567-66.024C147.362,378.856,134.043,319.404,134.043,256s13.32-122.856,37.506-167.403
		c23.115-42.577,53.148-66.024,84.567-66.024c45.48,0,88.311,50.811,109.116,129.449c1.44,5.446,7.027,8.697,12.469,7.251
		c5.445-1.44,8.692-7.023,7.251-12.469c-0.149-0.563-0.303-1.12-0.455-1.68c29.964,11.102,55.275,25.937,73.855,43.432
		c21.754,20.482,33.25,43.803,33.25,67.442s-11.497,46.96-33.249,67.442c-18.578,17.493-43.882,32.325-73.839,43.426
		c2.553-9.497,4.791-19.319,6.688-29.435C392.239,331.896,388.593,326.567,383.056,325.529z M127.727,366.957
		c-30.062-11.111-55.453-25.975-74.08-43.515C31.895,302.96,20.398,279.64,20.398,256c0-23.638,11.496-46.957,33.244-67.437
		c18.628-17.542,44.02-32.409,74.085-43.52c-9.209,34.122-14.083,71.879-14.083,110.958
		C113.645,295.078,118.519,332.836,127.727,366.957z M479.236,180.622c-23.382-24.889-58.399-45.71-102.18-59.642
		c-10.746-30.768-25.09-57.104-42.124-77.12c-4.469-5.252-9.09-10.022-13.837-14.308
		C395.304,50.915,454.598,107.847,479.236,180.622z M191.127,29.485c-13.805,12.474-26.464,29.043-37.506,49.379
		c-7.027,12.944-13.188,27.041-18.44,42.042c-43.891,13.931-78.994,34.781-102.417,59.715
		C57.427,107.775,116.815,50.799,191.127,29.485z M32.764,331.378c23.425,24.934,58.526,45.784,102.418,59.716
		c5.254,15.001,11.413,29.097,18.44,42.041c11.042,20.337,23.701,36.907,37.506,49.379
		C116.815,461.201,57.427,404.226,32.764,331.378z M321.146,482.434c7.202-6.523,14.115-14.168,20.673-22.922
		c14.171-18.916,26.066-42.104,35.272-68.502c43.766-13.931,78.77-34.749,102.146-59.632
		C454.603,404.136,395.33,461.058,321.146,482.434z"/>
	<path style="fill:#5E282D;" d="M397.459,288.331c0.132-1.874,0.253-3.754,0.361-5.642c0.324-5.624-3.972-10.445-9.594-10.77
		c-5.628-0.339-10.445,3.972-10.77,9.594c-0.105,1.803-0.22,3.599-0.346,5.389c-0.395,5.62,3.842,10.494,9.46,10.889
		c0.244,0.017,0.484,0.024,0.724,0.024C392.603,297.817,397.082,293.707,397.459,288.331z"/>
	<path style="fill:#5E282D;" d="M296.797,301V112.191c0-22.495-18.301-40.797-40.797-40.797s-40.797,18.301-40.797,40.797V301
		c-17.664,12.955-28.048,33.286-28.048,55.462c0,37.961,30.883,68.845,68.845,68.845s68.845-30.883,68.845-68.845
		C324.845,334.286,314.461,313.955,296.797,301z M256,404.908c-26.713,0-48.446-21.733-48.446-48.446
		c0-16.991,8.664-32.445,23.179-41.338c3.025-1.854,4.869-5.148,4.869-8.696V112.191c0-11.248,9.151-20.398,20.398-20.398
		c11.248,0,20.398,9.151,20.398,20.398v194.236c0,3.548,1.845,6.842,4.869,8.696c14.513,8.895,23.179,24.348,23.179,41.338
		C304.446,383.175,282.713,404.908,256,404.908z"/>
	<path style="fill:#5E282D;" d="M266.199,321.727V129.53c0-5.632-4.567-10.199-10.199-10.199c-5.632,0-10.199,4.567-10.199,10.199
		v192.197c-15.013,4.416-26.008,18.312-26.008,34.735c0,19.965,16.242,36.207,36.207,36.207c19.965,0,36.207-16.242,36.207-36.207
		C292.207,340.038,281.212,326.143,266.199,321.727z M256,372.271c-8.717,0-15.809-7.092-15.809-15.809s7.092-15.809,15.809-15.809
		s15.809,7.092,15.809,15.809S264.717,372.271,256,372.271z"/>
</g>
</svg>